# https://github.com/mikedh/trimesh
v 0.01036000 0.03813500 0.00013529
v 0.01044900 0.02622500 0.00012830
v -0.01038700 0.02620050 0.00011521
v -0.01047900 0.03298450 0.01657294
v -0.01040100 0.03808800 0.00014576
v -0.01038900 0.03754350 0.01674750
v -0.00873000 0.02492150 0.03156521
v 0.01040000 0.03756000 0.01661570
v 0.00584000 0.03207050 0.04695985
v 0.00861600 0.03192800 0.04479964
v 0.01049500 0.03248500 0.01609114
v 0.00869300 0.02486700 0.04378544
v -0.00862300 0.02490500 0.04447234
v -0.00548100 0.02488800 0.04689177
v -0.00527800 0.03208000 0.04700000
v -0.00777800 0.03204250 0.04570562
v -0.00884100 0.03189250 0.04415464
v 0.00613800 0.02492300 0.04676347
v 0.01036000 0.03813500 0.00013529
v 0.01036000 0.03813500 0.00013529
v 0.01044900 0.02622500 0.00012830
v 0.01044900 0.02622500 0.00012830
v -0.01038700 0.02620050 0.00011521
v -0.01038700 0.02620050 0.00011521
v -0.01038700 0.02620050 0.00011521
v -0.01040100 0.03808800 0.00014576
v -0.01040100 0.03808800 0.00014576
v -0.01038900 0.03754350 0.01674750
v -0.01038900 0.03754350 0.01674750
v -0.00873000 0.02492150 0.03156521
v 0.01040000 0.03756000 0.01661570
v 0.01040000 0.03756000 0.01661570
v 0.00584000 0.03207050 0.04695985
v 0.00584000 0.03207050 0.04695985
v 0.00584000 0.03207050 0.04695985
v 0.00861600 0.03192800 0.04479964
v 0.00861600 0.03192800 0.04479964
v 0.00869300 0.02486700 0.04378544
v 0.00869300 0.02486700 0.04378544
v -0.00862300 0.02490500 0.04447234
v -0.00862300 0.02490500 0.04447234
v -0.00862300 0.02490500 0.04447234
v -0.00548100 0.02488800 0.04689177
v -0.00548100 0.02488800 0.04689177
v -0.00527800 0.03208000 0.04700000
v -0.00527800 0.03208000 0.04700000
v -0.00777800 0.03204250 0.04570562
v -0.00777800 0.03204250 0.04570562
v -0.00884100 0.03189250 0.04415464
v -0.00884100 0.03189250 0.04415464
v 0.00613800 0.02492300 0.04676347
v 0.00613800 0.02492300 0.04676347
vn 0.99996972 0.00747376 -0.00216629
vn 0.00682127 -0.99928185 -0.03727271
vn -0.99959424 -0.02786675 0.00589908
vn -0.99896440 -0.03294844 0.03137720
vn -0.00051013 0.00256932 -0.99999657
vn -0.00342996 0.99449241 0.10475250
vn -0.66365577 -0.74802430 0.00454545
vn 0.99949263 0.01326326 0.02895802
vn 0.20809462 0.95653107 0.20431578
vn 0.66121817 -0.02369462 0.74981937
vn 0.99908931 -0.03098364 0.02933550
vn 0.00756625 -0.99994524 -0.00722994
vn -0.99767210 -0.04099042 0.05449928
vn -0.57568443 -0.04951365 0.81617145
vn 0.00359788 -0.01514839 0.99987878
vn -0.65603241 -0.01179250 0.75464058
vn -0.42464636 0.88166494 0.20577270
vn 0.71820470 -0.05970818 0.69326542
vn -0.00129047 0.99942189 0.03397393
vn 0.00025235 0.00124383 -0.99999919
vn 0.99980964 -0.01838485 0.00653258
vn 0.00062754 0.00059159 -0.99999963
vn -0.66365577 -0.74802430 0.00454545
vn 0.00120044 -0.99917080 -0.04069725
vn -0.00013290 0.00191355 -0.99999816
vn -0.00224611 0.99946001 0.03278168
vn -0.99998903 0.00246894 -0.00398114
vn -0.42464636 0.88166494 0.20577270
vn -0.99940265 0.01861448 0.02911788
vn 0.00882732 -0.99967905 -0.02374604
vn 0.20809462 0.95653107 0.20431578
vn -0.00013661 0.99468379 0.10297643
vn 0.61425613 0.00392941 0.78909693
vn 0.00847940 -0.02284094 0.99970315
vn 0.00106474 0.98408484 0.17769609
vn 0.20809462 0.95653107 0.20431578
vn 0.99785815 0.00263368 0.06536191
vn 0.75541072 -0.08508193 0.64970433
vn 0.99803097 -0.01303749 0.06135314
vn -0.64788479 -0.05457926 0.75978050
vn -0.00445458 -0.99998931 -0.00124142
vn -0.66365577 -0.74802430 0.00454545
vn 0.00634587 -0.01947892 0.99979013
vn -0.00218576 -0.99999757 0.00030187
vn -0.45977602 -0.00038619 0.88803483
vn -0.03984555 0.98210035 0.18409572
vn -0.42464636 0.88166494 0.20577270
vn -0.11579639 0.97385578 0.19543827
vn -0.82485872 -0.00003020 0.56533892
vn -0.99800140 -0.02436999 0.05830367
vn 0.00324997 -0.99976167 0.02158821
vn 0.01111888 -0.02700005 0.99957359
f 20//20 22//22 25//25
f 3//3 4//4 27//27
f 27//27 4//4 29//29
f 2//2 30//30 24//24
f 32//32 6//6 35//35
f 25//25 5//5 20//20
f 37//37 11//11 8//8
f 11//11 39//39 21//21
f 37//37 39//39 11//11
f 42//42 23//23 7//7
f 2//2 12//12 30//30
f 12//12 44//44 30//30
f 8//8 11//11 21//21
f 8//8 21//21 1//1
f 32//32 19//19 6//6
f 6//6 46//46 35//35
f 48//48 46//46 6//6
f 40//40 14//14 16//16
f 3//3 13//13 4//4
f 31//31 9//9 36//36
f 19//19 26//26 6//6
f 4//4 50//50 29//29
f 17//17 47//47 28//28
f 34//34 43//43 52//52
f 15//15 43//43 34//34
f 12//12 51//51 44//44
f 18//18 38//38 10//10
f 44//44 41//41 30//30
f 16//16 14//14 45//45
f 13//13 50//50 4//4
f 18//18 10//10 33//33
f 16//16 49//49 40//40